<svg xmlns="http://www.w3.org/2000/svg" viewBox="0 0 237.91 48"><title>Hotels.com logo</title><path d="M422.38,497.33a6.63,6.63,0,0,1,1.17-3.76,5.32,5.32,0,0,0-3.83,5.09v4.27l2.67.13Z" transform="translate(-393.05 -488)" style="fill:#ee2841"/><path d="M419.71,526.67a5.32,5.32,0,0,0,3.84,5.09,6.61,6.61,0,0,1-1.17-3.76v-8h-2.67Z" transform="translate(-393.05 -488)" style="fill:#ee2841"/><path d="M426.38,520h-2.67v8a5.32,5.32,0,0,0,3.83,5.09,6.63,6.63,0,0,1-1.17-3.76Z" transform="translate(-393.05 -488)" style="fill:#ee2841"/><path d="M426.38,496a6.63,6.63,0,0,1,1.17-3.76,5.32,5.32,0,0,0-3.83,5.09v5.8l2.67.13Z" transform="translate(-393.05 -488)" style="fill:#ee2841"/><path d="M396.32,494.29A6.64,6.64,0,0,0,393,500v25.33a6.64,6.64,0,0,0,3.27,5.71,7.93,7.93,0,0,1-.6-3V497.33a8,8,0,0,1,.6-3" transform="translate(-393.05 -488)" style="fill:#ee2841"/><path d="M399.71,494.67a8,8,0,0,1,.6-3,6.64,6.64,0,0,0-3.27,5.71V528a6.65,6.65,0,0,0,4.36,6.23,8,8,0,0,1-1.69-4.9Z" transform="translate(-393.05 -488)" style="fill:#ee2841"/><path d="M433,490.67a5.33,5.33,0,0,0-5.33,5.33v8.67L414.38,504v-9.33a6.67,6.67,0,0,0-13.33,0v34.67a6.67,6.67,0,0,0,13.33,0V518.67h13.33v10.67a5.33,5.33,0,0,0,10.66,0V496a5.33,5.33,0,0,0-5.33-5.33" transform="translate(-393.05 -488)" style="fill:#ee2841"/><path d="M479.09,523.14v-9.87h-14.4v9.87a2,2,0,0,1-1.91,1.95,2,2,0,0,1-2-1.95V500.62a2,2,0,0,1,2-1.95,2,2,0,0,1,1.95,1.95v9.17h14.4v-9.17a2,2,0,0,1,3.9,0v22.52a2,2,0,0,1-3.9,0" transform="translate(-393.05 -488)" style="fill:#ee2841"/><path d="M485.75,515.45c0-5.43,3.67-9.87,9.52-9.87s9.52,4.45,9.52,9.87-3.63,9.91-9.52,9.91-9.52-4.45-9.52-9.91m15.38,0c0-3.55-2.07-6.75-5.86-6.75s-5.85,3.2-5.85,6.75,2.11,6.79,5.85,6.79,5.86-3.2,5.86-6.79" transform="translate(-393.05 -488)" style="fill:#ee2841"/><path d="M525.21,505.57a9,9,0,0,1,9.17,9.37c0,1.05-.74,1.68-2.07,1.68H519.48a6.19,6.19,0,0,0,6.4,5.86,8.07,8.07,0,0,0,4.68-1.53,1.24,1.24,0,0,1,.78-.19,1.41,1.41,0,0,1,.78,2.58,11,11,0,0,1-6.6,2c-5.62,0-9.76-4-9.76-9.91,0-5.46,3.94-9.87,9.45-9.87m-5.78,8.51H531a5.58,5.58,0,0,0-5.74-5.62,5.77,5.77,0,0,0-5.78,5.62" transform="translate(-393.05 -488)" style="fill:#ee2841"/><path d="M536.62,523.33V500.42a1.75,1.75,0,0,1,1.76-1.75,1.77,1.77,0,0,1,1.75,1.75v22.91a1.77,1.77,0,0,1-1.75,1.76,1.75,1.75,0,0,1-1.76-1.76" transform="translate(-393.05 -488)" style="fill:#ee2841"/><path d="M542.39,522a1.5,1.5,0,0,1,1.52-1.52,1.61,1.61,0,0,1,.86.27,9.13,9.13,0,0,0,5.31,1.79c2.65,0,4.06-1.09,4.06-2.69,0-1.87-2.15-2.5-4.57-3-3.2-.74-6.94-1.6-6.94-5.66,0-3,2.57-5.58,7.18-5.58a10.37,10.37,0,0,1,6.28,1.95,1.43,1.43,0,0,1-.82,2.61,1.34,1.34,0,0,1-.78-.27,7.84,7.84,0,0,0-4.64-1.44c-2.38,0-3.87.94-3.87,2.46s2,2.19,4.37,2.73c3.28.74,7.18,1.64,7.18,6,0,3.24-2.65,5.78-7.61,5.78a11.13,11.13,0,0,1-6.87-2.11,1.55,1.55,0,0,1-.66-1.25" transform="translate(-393.05 -488)" style="fill:#ee2841"/><path d="M562.15,520.45a2.47,2.47,0,0,1,2.46,2.42,2.5,2.5,0,0,1-2.46,2.46,2.47,2.47,0,0,1-2.42-2.46,2.43,2.43,0,0,1,2.42-2.42" transform="translate(-393.05 -488)" style="fill:#ee2841"/><path d="M582.84,515.45c0-5.43,3.67-9.87,9.52-9.87s9.52,4.45,9.52,9.87-3.63,9.91-9.52,9.91-9.52-4.45-9.52-9.91m15.38,0c0-3.55-2.07-6.75-5.86-6.75s-5.86,3.2-5.86,6.75,2.11,6.79,5.86,6.79,5.86-3.2,5.86-6.79" transform="translate(-393.05 -488)" style="fill:#ee2841"/><path d="M631,511.27v12.06a1.78,1.78,0,0,1-1.8,1.75,1.74,1.74,0,0,1-1.72-1.75v-11c0-2.19-1-3.24-3.28-3.24-1.91,0-3.79,2.15-4.68,3.52v10.73a1.75,1.75,0,0,1-1.75,1.75,1.78,1.78,0,0,1-1.76-1.75v-11c0-2.19-.94-3.24-3.32-3.24-1.84,0-3.67,2.28-4.61,3.65v10.6a1.77,1.77,0,0,1-1.75,1.75,1.75,1.75,0,0,1-1.76-1.75V507.61a1.74,1.74,0,0,1,1.72-1.76,1.78,1.78,0,0,1,1.8,1.76v1.09a8.16,8.16,0,0,1,6.09-3.12c2.85,0,4.53,1.48,5.12,3.51a8,8,0,0,1,6.41-3.51c3.48,0,5.3,1.91,5.3,5.7" transform="translate(-393.05 -488)" style="fill:#ee2841"/><path d="M575.13,505.57a8.41,8.41,0,0,1,6,2.19,1.67,1.67,0,0,1,.55,1.17,1.58,1.58,0,0,1-1.56,1.6,1.6,1.6,0,0,1-1.06-.39,5.24,5.24,0,0,0-3.79-1.44c-3.71,0-6.09,2.85-6.09,6.75s2.38,6.67,6.09,6.79c2.5.09,5-1.73,7-4.93.25-.4.62-1.13.92-1.52.57-.73,1-.38,1.32,0a3,3,0,0,1,.21,2.94,15.11,15.11,0,0,1-3.18,4.18,9.23,9.23,0,0,1-6.47,2.48c-5.7,0-9.6-4.25-9.6-9.91s3.9-9.87,9.6-9.87" transform="translate(-393.05 -488)" style="fill:#ee2841"/><path d="M518.28,522c0,.66-1.9,2.15-3.27,2.81a5.77,5.77,0,0,1-2.69.55c-3,0-4.49-1.68-4.49-4.64V509.13H506a1.54,1.54,0,1,1,0-3.08h1.8v-3.59a1.75,1.75,0,0,1,1.76-1.76,1.77,1.77,0,0,1,1.75,1.76V506h2.46a1.54,1.54,0,1,1,0,3.08h-2.46v10.81c0,1.33.63,2.3,1.84,2.3,2.15,0,3.84-3.34,4.79-3.34s.31,2.24.31,3.1" transform="translate(-393.05 -488)" style="fill:#ee2841"/></svg>